<svg xmlns="http://www.w3.org/2000/svg" width="80" height="57" viewBox="0 0 80 57">
    <path fill="#ffffff" d="M19.16 56.21C29.86 56.21 37.05 50.94 37.05 39.76 37.05 29.7 29.38 25.07 22.2 25.07 19.96 25.07 18.52 25.71 17.09 27.15L16.45 26.51C19.64 18.52 27.62 13.25 37.68 9.1L23.95 0C8.14 6.55 0 19.32 0 34.01 0 46.15 5.91 56.21 19.16 56.21ZM61.48 56.21C72.18 56.21 79.36 50.94 79.36 39.76 79.36 29.7 71.7 25.07 64.51 25.07 62.28 25.07 60.84 25.71 59.4 27.15L58.76 26.51C61.96 18.52 69.94 13.25 80 9.1L66.27 0C50.46 6.55 42.32 19.32 42.32 34.01 42.32 46.15 48.22 56.21 61.48 56.21Z"/>
</svg>
